<svg width="100" height="100" viewBox="0 0 100 100" fill="none" xmlns="http://www.w3.org/2000/svg">
<mask id="mask0_12_723" style="mask-type:alpha" maskUnits="userSpaceOnUse" x="0" y="0" width="100" height="100">
<circle cx="50" cy="50" r="50" fill="#D9D9D9"/>
</mask>
<g mask="url(#mask0_12_723)">
<path d="M-30 0H8.75L10.3484 1.95938H84.6516L86.25 0H125V95H86.25L84.6516 93.0406H10.3484L8.75 95H-30V0Z" fill="#D52B1E"/>
<path d="M15 -2.23136L85 -5V102.764L15 105V-2.23136ZM51.3125 84.4269L50.6563 69.7233C50.6467 69.4815 50.6837 69.2403 50.7645 69.0174C50.8454 68.7945 50.9679 68.5956 51.1233 68.4354C51.2786 68.2752 51.4627 68.1578 51.662 68.0917C51.8613 68.0256 52.0708 68.0126 52.275 68.0536L64.8021 70.6263L63.1104 65.1742C63.0418 64.9573 63.033 64.7207 63.0853 64.4977C63.1376 64.2746 63.2484 64.0763 63.4021 63.9305L77.125 50.9477L74.0333 49.261C73.8245 49.1457 73.6589 48.9453 73.5676 48.6975C73.4763 48.4497 73.4656 48.1714 73.5375 47.915L76.25 38.1694L68.3458 40.1287C68.1317 40.1809 67.9087 40.1449 67.7147 40.0269C67.5206 39.9089 67.3675 39.7162 67.2813 39.4813L65.75 35.273L59.5813 43.0081C59.4402 43.1819 59.2547 43.2977 59.0526 43.3379C58.8505 43.3781 58.6427 43.3408 58.4603 43.2313C58.278 43.1219 58.1309 42.9464 58.0411 42.7311C57.9514 42.5157 57.9238 42.2722 57.9625 42.037L60.9375 24.1133L56.1688 27.3334C56.0568 27.4101 55.9325 27.459 55.8037 27.4773C55.6749 27.4956 55.5442 27.4828 55.4198 27.4397C55.2954 27.3965 55.1799 27.324 55.0804 27.2266C54.981 27.1292 54.8997 27.009 54.8417 26.8734L50 15.7648L45.1583 26.8734C45.1003 27.009 45.019 27.1292 44.9196 27.2266C44.8201 27.324 44.7046 27.3965 44.5802 27.4397C44.4558 27.4828 44.3251 27.4956 44.1963 27.4773C44.0675 27.459 43.9432 27.4101 43.8313 27.3334L39.0625 24.1133L42.0375 42.037C42.0762 42.2722 42.0486 42.5157 41.9589 42.7311C41.8691 42.9464 41.722 43.1219 41.5397 43.2313C41.3573 43.3408 41.1495 43.3781 40.9474 43.3379C40.7453 43.2977 40.5598 43.1819 40.4188 43.0081L34.25 35.273L32.7188 39.4813C32.6325 39.7162 32.4794 39.9089 32.2853 40.0269C32.0913 40.1449 31.8683 40.1809 31.6542 40.1287L23.75 38.1694L26.4625 47.915C26.5344 48.1714 26.5237 48.4497 26.4324 48.6975C26.3411 48.9453 26.1755 49.1457 25.9667 49.261L22.875 50.9477L36.5979 63.9305C36.7516 64.0763 36.8624 64.2746 36.9147 64.4977C36.967 64.7207 36.9582 64.9573 36.8896 65.1742L35.1979 70.6263L47.725 68.0536C47.9292 68.0126 48.1387 68.0256 48.338 68.0917C48.5373 68.1578 48.7214 68.2752 48.8767 68.4354C49.0321 68.5956 49.1546 68.7945 49.2355 69.0174C49.3163 69.2403 49.3533 69.4815 49.3438 69.7233L48.6875 84.4269H51.3125Z" fill="white"/>
</g>
</svg>
