<svg width="20" height="20" viewBox="0 0 20 20" fill="none" xmlns="http://www.w3.org/2000/svg">
<mask id="mask0_12_723" style="mask-type:alpha" maskUnits="userSpaceOnUse" x="0" y="0" width="20" height="20">
<circle cx="10" cy="10" r="10" fill="#D9D9D9"/>
</mask>
<g mask="url(#mask0_12_723)">
<path d="M-6 0H1.75L2.06969 0.391875H16.9303L17.25 0H25V19H17.25L16.9303 18.6081H2.06969L1.75 19H-6V0Z" fill="#D52B1E"/>
<path d="M3 -0.446273L17 -1V20.5528L3 21V-0.446273ZM10.2625 16.8854L10.1312 13.9447C10.1293 13.8963 10.1367 13.8481 10.1529 13.8035C10.1691 13.7589 10.1936 13.7191 10.2247 13.6871C10.2557 13.655 10.2925 13.6316 10.3324 13.6183C10.3723 13.6051 10.4142 13.6025 10.455 13.6107L12.9604 14.1253L12.6221 13.0349C12.6084 12.9915 12.6066 12.9441 12.6171 12.8995C12.6275 12.8549 12.6497 12.8153 12.6804 12.7861L15.425 10.1895L14.8067 9.8522C14.7649 9.82914 14.7318 9.78907 14.7135 9.7395C14.6953 9.68993 14.6931 9.63428 14.7075 9.583L15.25 7.63388L13.6692 8.02575C13.6263 8.03618 13.5817 8.02899 13.5429 8.00539C13.5041 7.98179 13.4735 7.94323 13.4562 7.89626L13.15 7.0546L11.9162 8.60163C11.888 8.63639 11.8509 8.65953 11.8105 8.66758C11.7701 8.67563 11.7285 8.66815 11.6921 8.64627C11.6556 8.62439 11.6262 8.58928 11.6082 8.54621C11.5903 8.50314 11.5848 8.45444 11.5925 8.4074L12.1875 4.82265L11.2337 5.46668C11.2114 5.48201 11.1865 5.49181 11.1607 5.49547C11.135 5.49912 11.1088 5.49656 11.084 5.48793C11.0591 5.47931 11.036 5.4648 11.0161 5.44532C10.9962 5.42584 10.9799 5.40179 10.9683 5.37468L10 3.15295L9.03167 5.37468C9.02006 5.40179 9.0038 5.42584 8.98391 5.44532C8.96402 5.4648 8.94092 5.47931 8.91604 5.48793C8.89116 5.49656 8.86502 5.49912 8.83926 5.49547C8.81349 5.49181 8.78864 5.48201 8.76625 5.46668L7.8125 4.82265L8.4075 8.4074C8.41525 8.45444 8.40973 8.50314 8.39178 8.54621C8.37383 8.58928 8.34441 8.62439 8.30793 8.64627C8.27146 8.66815 8.2299 8.67563 8.18948 8.66758C8.14906 8.65953 8.11196 8.63639 8.08375 8.60163L6.85 7.0546L6.54375 7.89626C6.5265 7.94323 6.49587 7.98179 6.45707 8.00539C6.41826 8.02899 6.37366 8.03618 6.33083 8.02575L4.75 7.63388L5.2925 9.583C5.30688 9.63428 5.30473 9.68993 5.28647 9.7395C5.26821 9.78907 5.23509 9.82914 5.19333 9.8522L4.575 10.1895L7.31958 12.7861C7.35032 12.8153 7.37248 12.8549 7.38294 12.8995C7.3934 12.9441 7.39164 12.9915 7.37792 13.0349L7.03958 14.1253L9.545 13.6107C9.58584 13.6025 9.62773 13.6051 9.6676 13.6183C9.70746 13.6316 9.74428 13.655 9.77535 13.6871C9.80641 13.7191 9.83093 13.7589 9.84709 13.8035C9.86326 13.8481 9.87066 13.8963 9.86875 13.9447L9.7375 16.8854H10.2625Z" fill="white"/>
</g>
</svg>
