<svg width="20" height="20" viewBox="0 0 20 20" fill="none" xmlns="http://www.w3.org/2000/svg">
<mask id="mask0_76_66" style="mask-type:alpha" maskUnits="userSpaceOnUse" x="0" y="0" width="20" height="20">
<circle cx="10" cy="10" r="10" fill="#CACACA"/>
</mask>
<g mask="url(#mask0_76_66)">
<rect width="20" height="20" fill="url(#paint0_linear_76_66)"/>
<path d="M7.36512 3C8.57045 3 9.66176 3.48889 10.4517 4.27928C11.2416 5.06968 11.7303 6.16162 11.7303 7.36765C11.7303 7.5867 11.7139 7.80275 11.6824 8.01454C11.6638 8.13952 11.6397 8.26336 11.6103 8.38573C11.9389 8.30664 12.282 8.26467 12.6349 8.26467C13.8402 8.26467 14.9315 8.75356 15.7215 9.54396C16.5114 10.3343 17 11.4263 17 12.6323C17 13.8384 16.5114 14.9303 15.7215 15.7207C14.9315 16.5111 13.8402 17 12.6349 17C11.4295 17 10.3382 16.5111 9.54829 15.7207C8.75835 14.9303 8.26975 13.8384 8.26975 12.6323C8.26975 12.2817 8.31111 11.9407 8.38912 11.6139C8.26601 11.6436 8.14121 11.6681 8.01497 11.687C7.80229 11.7188 7.58524 11.7353 7.36512 11.7353C6.15978 11.7353 5.06847 11.2464 4.27854 10.456C3.48861 9.66563 3 8.57369 3 7.36765C3 6.16162 3.48861 5.06968 4.27854 4.27928C5.06847 3.48889 6.15978 3 7.36512 3ZM7.81757 14.9744L6.17915 14.9435V14.6416L7.34793 14.6639C7.02985 14.4424 6.73272 14.1924 6.46029 13.9175C5.87836 13.3303 5.40894 12.6297 5.08731 11.8514L5.36791 11.7388C5.67418 12.4794 6.1208 13.146 6.67432 13.7045C6.96602 13.9989 7.28745 14.2632 7.63362 14.4927L7.51043 13.3125H7.81401L7.98779 14.9774L7.81757 14.9744ZM12.2482 5.00523L13.8866 5.03619V5.33801L12.7178 5.31575C13.0359 5.53723 13.3331 5.78723 13.6055 6.06214C14.1874 6.64935 14.6568 7.34999 14.9785 8.12821L14.6979 8.24084C14.3916 7.50025 13.945 6.83368 13.3915 6.27513C13.0998 5.98078 12.7783 5.71648 12.4322 5.48697L12.5554 6.66712H12.2518L12.078 5.00225L12.2482 5.00523ZM13.15 14.3749C12.9175 14.3749 12.7071 14.3435 12.5182 14.2815C12.3293 14.2195 12.1672 14.1208 12.0325 13.9846C11.8979 13.8483 11.7947 13.6693 11.722 13.4473C11.6494 13.2254 11.6127 12.956 11.6127 12.6392C11.6127 12.229 11.6761 11.8954 11.8031 11.6382C11.9301 11.3811 12.1113 11.1921 12.3461 11.0712C12.5809 10.9502 12.8609 10.8898 13.1867 10.8898C13.3183 10.8898 13.4444 10.8982 13.5645 10.915C13.6846 10.9319 13.8031 10.9564 13.9209 10.9885V11.3076C13.8016 11.2724 13.6831 11.2464 13.5645 11.2303C13.446 11.2143 13.3244 11.2066 13.2005 11.2066C12.9419 11.2066 12.7232 11.2525 12.5442 11.3443C12.3653 11.4362 12.2299 11.5862 12.1373 11.7943C12.0448 12.0025 11.9981 12.2811 11.9981 12.63C11.9981 12.9912 12.0456 13.2752 12.1396 13.4825C12.2337 13.6899 12.3683 13.8376 12.5442 13.9256C12.7201 14.0137 12.9312 14.058 13.1775 14.058C13.303 14.058 13.4246 14.0481 13.5423 14.0282C13.6601 14.0083 13.7863 13.9762 13.9209 13.9318V14.2486C13.8077 14.2884 13.6869 14.319 13.5576 14.3412C13.4284 14.3634 13.2922 14.3749 13.15 14.3749ZM11.2111 13.1259V12.8757H13.5125V13.1259H11.2111ZM11.2111 12.343V12.0928H13.5125V12.343H11.2111ZM4.96279 9.06659V5.72384C5.04998 5.70701 5.14099 5.6917 5.23507 5.67792C5.32915 5.66416 5.42857 5.65268 5.53412 5.64426C5.63968 5.63585 5.75133 5.63203 5.86911 5.63203C6.3158 5.63203 6.64849 5.71313 6.86724 5.87615C7.08597 6.03915 7.19535 6.29398 7.19535 6.63988C7.19535 6.86642 7.14257 7.05544 7.03626 7.20697C6.92995 7.35849 6.77317 7.47252 6.56664 7.54905C6.36014 7.62558 6.10468 7.66383 5.80029 7.66383C5.70698 7.66383 5.62438 7.66154 5.55249 7.65772C5.48059 7.65389 5.4064 7.6493 5.32992 7.64318V9.06659H4.96279ZM7.03244 9.06659L5.8347 7.4687H6.25002L7.45692 9.06659H7.03244ZM5.80258 7.36538C6.16665 7.36538 6.43051 7.30645 6.59419 7.1886C6.75787 7.07074 6.83969 6.88937 6.83969 6.64447C6.83969 6.47458 6.8068 6.33683 6.74102 6.23198C6.67527 6.12716 6.57278 6.05063 6.43281 6.00242C6.29284 5.9542 6.11157 5.93048 5.88977 5.93048C5.77506 5.93048 5.67487 5.9343 5.5892 5.94272C5.50353 5.95113 5.41711 5.96339 5.32992 5.9787V7.34241C5.38956 7.34855 5.44311 7.35314 5.49053 7.35619C5.53794 7.35926 5.58613 7.36156 5.63509 7.36308C5.68403 7.3646 5.73987 7.36538 5.80258 7.36538ZM8.5514 9.11022C8.41984 9.11022 8.28142 9.09873 8.13608 9.07578C7.99077 9.05281 7.85235 9.01915 7.72079 8.97476V8.65563C7.81562 8.68624 7.91199 8.71151 8.00914 8.73216C8.10626 8.75283 8.20034 8.76814 8.29212 8.77808C8.38391 8.78804 8.4711 8.79338 8.5537 8.79338C8.74338 8.79338 8.90017 8.76966 9.02407 8.72222C9.14797 8.67478 9.23975 8.60437 9.29941 8.51176C9.35906 8.41917 9.3889 8.30514 9.3889 8.16893C9.3889 7.99597 9.33842 7.86358 9.2367 7.7725C9.13496 7.68144 8.96135 7.60413 8.7166 7.53986L8.53304 7.49165C8.24394 7.41819 8.02748 7.30645 7.88369 7.15721C7.73991 7.00799 7.66801 6.81131 7.66801 6.56642C7.66801 6.27408 7.76973 6.04374 7.97318 5.87615C8.17663 5.70853 8.48103 5.62513 8.88639 5.62513C9.01336 5.62513 9.14108 5.63355 9.26882 5.65115C9.39654 5.66876 9.5128 5.694 9.61833 5.72614V6.04756C9.50209 6.01083 9.38278 5.98404 9.26041 5.96721C9.13803 5.95038 9.01718 5.94194 8.89787 5.94194C8.70053 5.94194 8.53917 5.96569 8.41295 6.01313C8.28676 6.06057 8.19346 6.12946 8.13379 6.21975C8.07415 6.31006 8.04432 6.41873 8.04432 6.54577C8.04432 6.71259 8.09097 6.84193 8.18427 6.93376C8.27758 7.0256 8.43896 7.10213 8.66841 7.16335L8.85427 7.20925C9.06232 7.26283 9.23363 7.33094 9.36824 7.41434C9.50285 7.49776 9.60306 7.59956 9.66882 7.71969C9.7346 7.83984 9.76749 7.98219 9.76749 8.14596C9.76749 8.35106 9.72007 8.52477 9.62522 8.66789C9.53039 8.81099 9.39272 8.92043 9.21145 8.99618C9.03018 9.07196 8.80991 9.11022 8.5514 9.11022ZM8.54681 9.61759V9.01838L8.89098 9.0023V9.61759H8.54681ZM8.54681 5.70319V5.11774H8.89098V5.70319H8.54681ZM8.4842 11.2765C8.69965 10.6157 9.06835 10.0242 9.54829 9.54396C10.0267 9.06526 10.6157 8.69721 11.2736 8.48134C11.3203 8.31645 11.3571 8.146 11.3832 7.97075C11.4123 7.77473 11.4275 7.57333 11.4275 7.36765C11.4275 6.24519 10.9728 5.22898 10.2377 4.49344C9.50257 3.75791 8.48693 3.30294 7.36512 3.30294C6.2433 3.30294 5.22769 3.75789 4.49257 4.49344C3.75745 5.22898 3.30277 6.24519 3.30277 7.36765C3.30277 8.49012 3.75747 9.50635 4.49257 10.2419C5.22769 10.9774 6.2433 11.4324 7.36512 11.4324C7.57179 11.4324 7.77421 11.4171 7.97121 11.3876C8.14677 11.3613 8.31804 11.324 8.4842 11.2765ZM15.5074 9.75811C14.7723 9.02259 13.7567 8.56762 12.6349 8.56762C11.513 8.56762 10.4974 9.02256 9.76232 9.75811C9.0272 10.4937 8.57251 11.5099 8.57251 12.6323C8.57251 13.7548 9.02722 14.771 9.76232 15.5066C10.4974 16.2421 11.513 16.6971 12.6349 16.6971C13.7567 16.6971 14.7723 16.2421 15.5074 15.5066C16.2425 14.771 16.6972 13.7548 16.6972 12.6323C16.6972 11.5099 16.2425 10.4937 15.5074 9.75811Z" fill="white"/>
</g>
<defs>
<linearGradient id="paint0_linear_76_66" x1="20" y1="20" x2="0.74134" y2="-0.690052" gradientUnits="userSpaceOnUse">
<stop stop-color="#A0E0BE"/>
<stop offset="1" stop-color="#15CDD5"/>
</linearGradient>
</defs>
</svg>
