<svg width="100" height="100" viewBox="0 0 100 100" fill="none" xmlns="http://www.w3.org/2000/svg">
<mask id="mask0_76_66" style="mask-type:alpha" maskUnits="userSpaceOnUse" x="0" y="0" width="100" height="100">
<circle cx="50" cy="50" r="50" fill="#CACACA"/>
</mask>
<g mask="url(#mask0_76_66)">
<rect width="100" height="100" fill="url(#paint0_linear_76_66)"/>
<path d="M36.8256 15C42.8523 15 48.3088 17.4444 52.2586 21.3964C56.2082 25.3484 58.6513 30.8081 58.6513 36.8383C58.6513 37.9335 58.5694 39.0137 58.4119 40.0727C58.319 40.6976 58.1985 41.3168 58.0517 41.9286C59.6947 41.5332 61.41 41.3234 63.1743 41.3234C69.201 41.3234 74.6575 43.7678 78.6073 47.7198C82.557 51.6717 85 57.1315 85 63.1616C85 69.1918 82.557 74.6516 78.6073 78.6036C74.6576 82.5556 69.201 85 63.1743 85C57.1476 85 51.6911 82.5556 47.7414 78.6036C43.7918 74.6515 41.3487 69.1918 41.3487 63.1616C41.3487 61.4083 41.5556 59.7034 41.9456 58.0697C41.3301 58.2181 40.7061 58.3405 40.0749 58.4349C39.0115 58.594 37.9262 58.6766 36.8256 58.6766C30.7989 58.6766 25.3424 56.2322 21.3927 52.2802C17.443 48.3282 15 42.8685 15 36.8383C15 30.8081 17.443 25.3484 21.3927 21.3964C25.3424 17.4444 30.7989 15 36.8256 15ZM39.0879 74.8721L30.8958 74.7173V73.2082L36.7397 73.3195C35.1492 72.2121 33.6636 70.9621 32.3015 69.5876C29.3918 66.6515 27.0447 63.1483 25.4366 59.2572L26.8396 58.694C28.3709 62.397 30.604 65.7298 33.3716 68.5226C34.8301 69.9944 36.4373 71.3159 38.1681 72.4634L37.5521 66.5627H39.07L39.939 74.887L39.0879 74.8721ZM61.241 25.0262L69.4331 25.1809V26.6901L63.5892 26.5788C65.1797 27.6861 66.6653 28.9362 68.0274 30.3107C70.9371 33.2467 73.2842 36.7499 74.8923 40.641L73.4893 41.2042C71.958 37.5013 69.7249 34.1684 66.9573 31.3757C65.4988 29.9039 63.8916 28.5824 62.1608 27.4349L62.7768 33.3356H61.2589L60.3899 25.0112L61.241 25.0262ZM65.7499 71.8743C64.5873 71.8743 63.5357 71.7174 62.5911 71.4075C61.6465 71.0976 60.8359 70.6039 60.1627 69.9229C59.4897 69.2417 58.9734 68.3463 58.6102 67.2367C58.2468 66.1271 58.0633 64.7801 58.0633 63.1961C58.0633 61.1451 58.3807 59.4768 59.0156 58.1912C59.6503 56.9054 60.5566 55.9603 61.7306 55.3558C62.9047 54.7512 64.3043 54.4489 65.9335 54.4489C66.5913 54.4489 67.2222 54.491 67.8226 54.5752C68.4229 54.6593 69.0157 54.7818 69.6047 54.9425V56.5381C69.0081 56.3621 68.4153 56.232 67.8226 56.1517C67.2299 56.0713 66.6218 56.033 66.0023 56.033C64.7097 56.033 63.616 56.2626 62.7212 56.7217C61.8263 57.1809 61.1494 57.9309 60.6867 58.9717C60.224 60.0125 59.9907 61.4053 59.9907 63.1501C59.9907 64.9562 60.2278 66.3758 60.6981 67.4127C61.1685 68.4497 61.8416 69.1882 62.7212 69.6282C63.6007 70.0683 64.6562 70.2902 65.8876 70.2902C66.5148 70.2902 67.1228 70.2405 67.7117 70.141C68.3007 70.0415 68.9316 69.8808 69.6047 69.6588V71.243C69.0387 71.442 68.4344 71.5951 67.7882 71.7059C67.1419 71.8169 66.4611 71.8743 65.7499 71.8743ZM56.0556 65.6297V64.3784H67.5625V65.6297H56.0556ZM56.0556 61.7152V60.464H67.5625V61.7152H56.0556ZM24.8139 45.333V28.6192C25.2499 28.535 25.7049 28.4585 26.1753 28.3896C26.6457 28.3208 27.1428 28.2634 27.6706 28.2213C28.1984 28.1792 28.7566 28.1601 29.3456 28.1601C31.579 28.1601 33.2425 28.5656 34.3362 29.3807C35.4299 30.1957 35.9767 31.4699 35.9767 33.1994C35.9767 34.3321 35.7128 35.2772 35.1813 36.0349C34.6498 36.7924 33.8658 37.3626 32.8332 37.7452C31.8007 38.1279 30.5234 38.3192 29.0014 38.3192C28.5349 38.3192 28.1219 38.3077 27.7624 38.2886C27.403 38.2695 27.032 38.2465 26.6496 38.2159V45.333H24.8139ZM35.1622 45.333L29.1735 37.3435H31.2501L37.2846 45.333H35.1622ZM29.0129 36.8269C30.8332 36.8269 32.1526 36.5323 32.971 35.943C33.7893 35.3537 34.1985 34.4468 34.1985 33.2224C34.1985 32.3729 34.034 31.6841 33.7051 31.1599C33.3763 30.6358 32.8639 30.2532 32.1641 30.0121C31.4642 29.771 30.5579 29.6524 29.4489 29.6524C28.8753 29.6524 28.3743 29.6715 27.946 29.7136C27.5176 29.7557 27.0855 29.817 26.6496 29.8935V36.712C26.9478 36.7427 27.2156 36.7657 27.4526 36.781C27.6897 36.7963 27.9306 36.8078 28.1754 36.8154C28.4201 36.823 28.6994 36.8269 29.0129 36.8269ZM42.757 45.5511C42.0992 45.5511 41.4071 45.4937 40.6804 45.3789C39.9539 45.2641 39.2617 45.0958 38.604 44.8738V43.2782C39.0781 43.4312 39.56 43.5575 40.0457 43.6608C40.5313 43.7642 41.0017 43.8407 41.4606 43.8904C41.9195 43.9402 42.3555 43.9669 42.7685 43.9669C43.7169 43.9669 44.5008 43.8483 45.1203 43.6111C45.7398 43.3739 46.1987 43.0218 46.4971 42.5588C46.7953 42.0959 46.9445 41.5257 46.9445 40.8447C46.9445 39.9799 46.6921 39.3179 46.1835 38.8625C45.6748 38.4072 44.8068 38.0207 43.583 37.6993L42.6652 37.4582C41.2197 37.0909 40.1374 36.5323 39.4185 35.7861C38.6995 35.04 38.3401 34.0566 38.3401 32.8321C38.3401 31.3704 38.8486 30.2187 39.8659 29.3807C40.8832 28.5427 42.4051 28.1257 44.432 28.1257C45.0668 28.1257 45.7054 28.1678 46.3441 28.2558C46.9827 28.3438 47.564 28.47 48.0917 28.6307V30.2378C47.5105 30.0542 46.9139 29.9202 46.302 29.8361C45.6902 29.7519 45.0859 29.7097 44.4894 29.7097C43.5027 29.7097 42.6959 29.8284 42.0648 30.0656C41.4338 30.3029 40.9673 30.6473 40.669 31.0987C40.3707 31.5503 40.2216 32.0936 40.2216 32.7288C40.2216 33.5629 40.4548 34.2096 40.9214 34.6688C41.3879 35.128 42.1948 35.5106 43.3421 35.8168L44.2714 36.0462C45.3116 36.3141 46.1682 36.6547 46.8412 37.0717C47.5142 37.4888 48.0153 37.9978 48.3441 38.5985C48.673 39.1992 48.8374 39.911 48.8374 40.7298C48.8374 41.7553 48.6004 42.6238 48.1261 43.3394C47.652 44.0549 46.9636 44.6021 46.0573 44.9809C45.1509 45.3598 44.0495 45.5511 42.757 45.5511ZM42.7341 48.0879V45.0919L44.4549 45.0115V48.0879H42.7341ZM42.7341 28.5159V25.5887H44.4549V28.5159H42.7341ZM42.421 56.3827C43.4983 53.0786 45.3417 50.1209 47.7414 47.7198C50.1335 45.3263 53.0783 43.4861 56.3678 42.4067C56.6016 41.5823 56.7856 40.73 56.9159 39.8537C57.0617 38.8737 57.1374 37.8666 57.1374 36.8383C57.1374 31.2259 54.864 26.1449 51.1884 22.4672C47.5128 18.7896 42.4347 16.5147 36.8256 16.5147C31.2165 16.5147 26.1384 18.7895 22.4628 22.4672C18.7873 26.1449 16.5138 31.2259 16.5138 36.8383C16.5138 42.4506 18.7874 47.5317 22.4628 51.2095C26.1384 54.8872 31.2165 57.1619 36.8256 57.1619C37.8589 57.1619 38.8711 57.0854 39.856 56.938C40.7338 56.8065 41.5902 56.6202 42.421 56.3827ZM77.5371 48.7906C73.8616 45.1129 68.7834 42.8381 63.1743 42.8381C57.5652 42.8381 52.4872 45.1128 48.8116 48.7906C45.136 52.4683 42.8626 57.5493 42.8626 63.1616C42.8626 68.774 45.1361 73.8551 48.8116 77.5328C52.4872 81.2106 57.5652 83.4853 63.1743 83.4853C68.7835 83.4853 73.8616 81.2106 77.5371 77.5328C81.2127 73.8551 83.4862 68.774 83.4862 63.1616C83.4862 57.5493 81.2127 52.4683 77.5371 48.7906Z" fill="white"/>
</g>
<defs>
<linearGradient id="paint0_linear_76_66" x1="100" y1="100" x2="3.7067" y2="-3.45026" gradientUnits="userSpaceOnUse">
<stop stop-color="#A0E0BE"/>
<stop offset="1" stop-color="#15CDD5"/>
</linearGradient>
</defs>
</svg>
