<svg width="115" height="115" viewBox="0 0 115 115" fill="none" xmlns="http://www.w3.org/2000/svg">
    <path
        d="M35.8563 0C45.7573 0 54.7216 4.01587 61.2105 10.5084C67.6993 17.0009 71.7128 25.9704 71.7128 35.8771C71.7128 37.6765 71.5783 39.4511 71.3196 41.1909C71.167 42.2175 70.9689 43.2348 70.7278 44.2399C73.427 43.5903 76.245 43.2455 79.1435 43.2455C89.0445 43.2455 98.0088 47.2614 104.498 53.7539C110.986 60.2464 115 69.2159 115 79.1227C115 89.0294 110.986 97.9991 104.498 104.492C98.009 110.984 89.0445 115 79.1435 115C69.2425 115 60.2782 110.984 53.7895 104.492C47.3008 97.9989 43.2872 89.0294 43.2872 79.1227C43.2872 76.2422 43.627 73.4413 44.2678 70.7573C43.2565 71.0012 42.2314 71.2022 41.1944 71.3574C39.4474 71.6187 37.6645 71.7545 35.8563 71.7545C25.9553 71.7545 16.991 67.7386 10.5023 61.2461C4.01355 54.7534 0 45.7839 0 35.8771C0 25.9704 4.01355 17.0009 10.5023 10.5084C16.991 4.01587 25.9553 0 35.8563 0ZM39.5729 98.3613L26.1145 98.107V95.6277L35.7152 95.8106C33.1023 93.9913 30.6617 91.9377 28.4238 89.6796C23.6437 84.8561 19.7877 79.1008 17.1458 72.7083L19.4507 71.783C21.9665 77.8665 25.6351 83.3419 30.1819 87.93C32.578 90.3479 35.2183 92.5189 38.0619 94.4041L37.0499 84.7101H39.5436L40.9711 98.3858L39.5729 98.3613ZM75.9674 16.4715L89.4259 16.7258V19.2051L79.8252 19.0222C82.438 20.8415 84.8787 22.8951 87.1165 25.1533C91.8967 29.9768 95.7526 35.732 98.3946 42.1246L96.0896 43.0498C93.5739 36.9664 89.9052 31.491 85.3584 26.9029C82.9623 24.485 80.322 22.3139 77.4785 20.4287L78.4904 30.1228H75.9967L74.5692 16.447L75.9674 16.4715ZM83.3749 93.4364C81.4649 93.4364 79.7373 93.1786 78.1853 92.6695C76.6336 92.1603 75.3018 91.3493 74.1959 90.2304C73.0902 89.1114 72.242 87.6404 71.6453 85.8175C71.0484 83.9945 70.7469 81.7816 70.7469 79.1793C70.7469 75.8099 71.2683 73.0691 72.3113 70.9569C73.3541 68.8446 74.8431 67.2919 76.7718 66.2988C78.7006 65.3055 81 64.8089 83.6764 64.8089C84.7571 64.8089 85.7937 64.8781 86.7801 65.0163C87.7663 65.1546 88.7401 65.3558 89.7077 65.6198V68.2412C88.7276 67.952 87.7538 67.7383 86.7801 67.6064C85.8062 67.4743 84.8073 67.4113 83.7896 67.4113C81.6659 67.4113 79.8691 67.7885 78.3991 68.5429C76.929 69.2972 75.8169 70.5293 75.0567 72.2392C74.2966 73.9492 73.9133 76.2373 73.9133 79.1038C73.9133 82.0708 74.3027 84.4031 75.0755 86.1066C75.8483 87.8102 76.954 89.0234 78.3991 89.7464C79.844 90.4694 81.578 90.8339 83.601 90.8339C84.6314 90.8339 85.6303 90.7522 86.5978 90.5888C87.5654 90.4253 88.602 90.1613 89.7077 89.7967V92.3992C88.7778 92.7261 87.7851 92.9776 86.7235 93.1597C85.6617 93.3421 84.5433 93.4364 83.3749 93.4364ZM67.4485 83.1773V81.1216H86.3527V83.1773H67.4485ZM67.4485 76.7464V74.6908H86.3527V76.7464H67.4485ZM16.1229 49.8327V22.3744C16.8391 22.2361 17.5867 22.1104 18.3595 21.9972C19.1323 21.8842 19.9489 21.7898 20.816 21.7207C21.6831 21.6516 22.6002 21.6202 23.5677 21.6202C27.2369 21.6202 29.9698 22.2864 31.7666 23.6255C33.5633 24.9644 34.4618 27.0577 34.4618 29.899C34.4618 31.7599 34.0282 33.3125 33.155 34.5573C32.2818 35.8019 30.9939 36.7385 29.2974 37.3672C27.6012 37.9958 25.5028 38.3101 23.0024 38.3101C22.2359 38.3101 21.5574 38.2912 20.9669 38.2598C20.3763 38.2284 19.7669 38.1907 19.1386 38.1404V49.8327H16.1229ZM33.1236 49.8327L23.285 36.7072H26.6966L36.6104 49.8327H33.1236ZM23.0212 35.8585C26.0117 35.8585 28.1792 35.3744 29.5237 34.4063C30.8682 33.4382 31.5403 31.9484 31.5403 29.9367C31.5403 28.5412 31.2702 27.4097 30.7298 26.5484C30.1897 25.6874 29.3478 25.0588 28.1981 24.6627C27.0483 24.2667 25.5593 24.0718 23.7374 24.0718C22.7951 24.0718 21.9721 24.1032 21.2684 24.1723C20.5647 24.2414 19.8548 24.3421 19.1386 24.4679V35.6698C19.6285 35.7202 20.0684 35.7579 20.4579 35.783C20.8474 35.8082 21.2432 35.8271 21.6454 35.8396C22.0474 35.8521 22.5061 35.8585 23.0212 35.8585ZM45.6008 50.1911C44.5201 50.1911 43.3831 50.0967 42.1893 49.9082C40.9956 49.7195 39.8586 49.443 38.7779 49.0784V46.457C39.5569 46.7084 40.3485 46.916 41.1465 47.0856C41.9443 47.2554 42.7171 47.3811 43.471 47.4628C44.2249 47.5446 44.9412 47.5885 45.6197 47.5885C47.1777 47.5885 48.4657 47.3937 49.4834 47.004C50.5012 46.6142 51.2551 46.0359 51.7452 45.2752C52.2351 44.5146 52.4803 43.5779 52.4803 42.4591C52.4803 41.0383 52.0656 39.9509 51.23 39.2027C50.3943 38.4546 48.9683 37.8197 46.9578 37.2917L45.4499 36.8957C43.0752 36.2922 41.2972 35.3744 40.1161 34.1485C38.9349 32.9228 38.3444 31.3072 38.3444 29.2956C38.3444 26.8942 39.1799 25.0022 40.8511 23.6255C42.5224 22.2487 45.0227 21.5636 48.3525 21.5636C49.3955 21.5636 50.4446 21.6327 51.4939 21.7773C52.543 21.9219 53.498 22.1293 54.3649 22.3933V25.0336C53.4101 24.7318 52.43 24.5118 51.4248 24.3735C50.4195 24.2353 49.4268 24.166 48.4468 24.166C46.8258 24.166 45.5003 24.361 44.4636 24.7507C43.4269 25.1404 42.6605 25.7063 42.1704 26.4479C41.6805 27.1898 41.4355 28.0824 41.4355 29.1259C41.4355 30.4962 41.8186 31.5587 42.5851 32.313C43.3515 33.0674 44.6772 33.696 46.562 34.199L48.0887 34.576C49.7976 35.0161 51.2049 35.5756 52.3105 36.2607C53.4162 36.9459 54.2394 37.7821 54.7796 38.7689C55.3199 39.7558 55.5901 40.9251 55.5901 42.2704C55.5901 43.9551 55.2006 45.382 54.4215 46.5577C53.6425 47.7331 52.5116 48.6321 51.0226 49.2544C49.5336 49.8768 47.7242 50.1911 45.6008 50.1911ZM45.5631 54.3587V49.4367L48.3902 49.3046V54.3587H45.5631ZM45.5631 22.2048V17.3957H48.3902V22.2048H45.5631ZM45.0488 67.9858C46.8186 62.5577 49.8471 57.6986 53.7895 53.7539C57.7193 49.8218 62.5573 46.7985 67.9613 45.0253C68.3455 43.6708 68.6478 42.2707 68.8619 40.8311C69.1014 39.221 69.2258 37.5666 69.2258 35.8771C69.2258 26.6569 65.4909 18.3095 59.4524 12.2675C53.4139 6.22571 45.0712 2.48846 35.8563 2.48846C26.6414 2.48846 18.2989 6.22553 12.2604 12.2675C6.22193 18.3095 2.48701 26.6569 2.48701 35.8771C2.48701 45.0974 6.2221 53.445 12.2604 59.487C18.2989 65.5289 26.6414 69.266 35.8563 69.266C37.554 69.266 39.2167 69.1403 40.8349 68.8982C42.277 68.6822 43.6839 68.3761 45.0488 67.9858ZM102.74 55.513C96.7011 49.4712 88.3584 45.734 79.1435 45.734C69.9286 45.734 61.5861 49.4711 55.5476 55.513C49.5091 61.555 45.7742 69.9024 45.7742 79.1227C45.7742 88.3429 49.5093 96.6905 55.5476 102.732C61.5861 108.774 69.9286 112.512 79.1435 112.512C88.3586 112.512 96.7011 108.774 102.74 102.732C108.778 96.6905 112.513 88.3429 112.513 79.1227C112.513 69.9024 108.778 61.555 102.74 55.513Z"
        fill="white" />
</svg>