<svg width="24" height="24" viewBox="0 0 24 24" fill="none" xmlns="http://www.w3.org/2000/svg">
<path fill-rule="evenodd" clip-rule="evenodd" d="M6.64645 3.64645C6.84171 3.45118 7.15829 3.45118 7.35355 3.64645L11.3536 7.64645C11.5488 7.84171 11.5488 8.15829 11.3536 8.35355C11.1583 8.54882 10.8417 8.54882 10.6464 8.35355L7.5 5.20711V20C7.5 20.2761 7.27614 20.5 7 20.5C6.72386 20.5 6.5 20.2761 6.5 20V5.20711L3.35355 8.35355C3.15829 8.54882 2.84171 8.54882 2.64645 8.35355C2.45118 8.15829 2.45118 7.84171 2.64645 7.64645L6.64645 3.64645ZM17 3.5C17.2761 3.5 17.5 3.72386 17.5 4V18.7929L20.6464 15.6464C20.8417 15.4512 21.1583 15.4512 21.3536 15.6464C21.5488 15.8417 21.5488 16.1583 21.3536 16.3536L17.3536 20.3536C17.1583 20.5488 16.8417 20.5488 16.6464 20.3536L12.6464 16.3536C12.4512 16.1583 12.4512 15.8417 12.6464 15.6464C12.8417 15.4512 13.1583 15.4512 13.3536 15.6464L16.5 18.7929V4C16.5 3.72386 16.7239 3.5 17 3.5Z" fill="#15CDD5"/>
</svg>
